<?xml version="1.0" encoding="UTF-8"?>
<svg id="Ebene_2" data-name="Ebene 2" xmlns="http://www.w3.org/2000/svg" viewBox="0 0 19.32 7.56">
  <defs>
    <style>
      .cls-1 {
        fill: #fff;
      }
    </style>
  </defs>
  <g id="Ebene_1-2" data-name="Ebene 1">
    <g>
      <path class="cls-1" d="M1.98,7.38H0V.18h3.45l.65,2.4c.12.44.31,1.3.49,2.17h.16c.17-.88.37-1.77.49-2.25L5.85.18h3.19v7.2h-2.16v-2.64c0-.91.05-1.93.08-2.82h-.16c-.22.97-.48,2.07-.83,3.21l-.58,1.9h-1.94l-.55-1.96c-.34-1.2-.59-2.21-.8-3.15h-.16c.02.89.02,1.91.02,2.82v2.64Z"/>
      <path class="cls-1" d="M9.79,3.75c0-2.37,1.44-3.75,3.68-3.75s3.68,1.38,3.68,3.75-1.33,3.8-3.68,3.8-3.68-1.43-3.68-3.8ZM15.01,3.74c0-1.15-.42-1.87-1.54-1.87s-1.54.73-1.54,1.87c0,1.25.42,1.98,1.52,1.98s1.55-.72,1.55-1.98Z"/>
      <path class="cls-1" d="M19.32,5.36v2.01h-2.09v-2.01h2.09Z"/>
    </g>
  </g>
</svg>