<?xml version="1.0" encoding="UTF-8"?>
<svg id="Ebene_2" data-name="Ebene 2" xmlns="http://www.w3.org/2000/svg" viewBox="0 0 5.72 6.79">
  <defs>
    <style>
      .cls-1 {
        fill: #eab644;
      }
    </style>
  </defs>
  <g id="Ebene_1-2" data-name="Ebene 1">
    <path class="cls-1" d="M5.72,3.43v1.57c0,.36-.07.73-.24,1.06-.18.36-.49.73-.99.73h-1.85c-.76,0-1.49-.65-1.49-.65,0,0-1.15-.82-1.15-1.8,0-.4.2-.63.43-.75.09-.05.19.02.19.12v.45c0,.13.08.24.21.27.17.04.32-.09.32-.26V.53c0-.26.19-.49.44-.52.31-.04.58.2.58.51v2.63c0,.13.09.24.21.27.17.03.32-.1.32-.26v-.82c0-.08.07-.14.15-.13l.38.05c.07,0,.11.06.11.13v.91c0,.05.02.1.04.15.05.07.13.12.22.12s.17-.05.22-.12c.03-.04.04-.09.04-.15v-.81c0-.08.07-.14.15-.13l.38.05c.07,0,.11.06.11.13v.9s0,0,0,0c0,.14.12.26.26.26s.26-.12.26-.26c0,0,0,0,0,0v-.73c0-.1.11-.16.2-.11.29.17.48.49.48.85Z"/>
  </g>
</svg>