<?xml version="1.0" encoding="UTF-8"?>
<svg id="Ebene_2" data-name="Ebene 2" xmlns="http://www.w3.org/2000/svg" viewBox="0 0 14.5 14.68">
  <defs>
    <style>
      .cls-1 {
        fill: none;
        stroke: #fff;
        stroke-linecap: round;
        stroke-linejoin: round;
      }
    </style>
  </defs>
  <g id="Ebene_1-2" data-name="Ebene 1">
    <path class="cls-1" d="M10.29,6.36l-1.12-1.88c-.41-.69-.17-1.59.54-1.98h0c.68-.37,1.53-.14,1.92.53l1.51,2.58h0c1.78,2.6.57,5.88-1.79,7.5-2.36,1.61-5.85,1.54-7.63-1.07-.1-.15-.2-.3-.28-.46l.28.46L.7,7.02c-.4-.67-.17-1.54.51-1.93l.16-.09c.67-.38,1.51-.14,1.89.52l1.13,1.99-1.82-3.19-.85-1.47c-.39-.67-.16-1.53.52-1.91h0c.66-.37,1.5-.15,1.88.51l2.49,4.24-1.81-3.08c-.41-.69-.15-1.58.57-1.95h0c.65-.34,1.46-.11,1.83.52l3.07,5.17s-2.29,1.33-1.22,3.64"/>
  </g>
</svg>